<?xml version="1.0" encoding="UTF-8"?>
<svg xmlns="http://www.w3.org/2000/svg" id="Layer_1" data-name="Layer 1" viewBox="0 0 24 24">
  <path d="m23.135,5.805c-.821-.798-1.864-.818-2.017-.805-.118,0-.224-.065-.277-.171-.564-1.128-1.698-1.829-2.959-1.829h-.882V.77c0-.525-.522-.904-1.015-.726-1.157.416-1.985,1.523-1.985,2.824v.934c-.034.064-1.55,4.197-1.55,4.197h-4.949c-1.433,0-2.777.552-3.806,1.543-.364-.468-.695-1.131-.695-2.042,0-.829-.671-1.5-1.5-1.5s-1.5.671-1.5,1.5c0,2.395,1.2,3.926,2.153,4.766-.092.402-.152.812-.152,1.234l.002,8.001c0,1.377,1.123,2.498,2.5,2.498s2.5-1.122,2.5-2.5v-2.5h7v2.5c0,1.378,1.122,2.5,2.5,2.5s2.5-1.122,2.5-2.5v-4.314l1.06-4.221c2.216-.278,3.937-2.174,3.937-4.465v-.474c0-1.14-.471-1.837-.865-2.221Zm-2.135,2.695c0,.828-.672,1.5-1.5,1.5h-.615c-.688,0-1.288.468-1.455,1.135l-1.261,5.021c-.201-.099-.426-.155-.666-.155H5.503c-.176,0-.345.03-.502.086v-2.586c0-1.381,1.119-2.5,2.5-2.5h6.002c.632,0,1.196-.396,1.411-.991l1.446-4.008h1.521c.121,0,.227.072.281.18.549,1.09,1.631,1.779,2.837,1.821,0,.008,0,.5,0,.5Z"/>
</svg>
