<?xml version="1.0" encoding="UTF-8"?>
<svg xmlns="http://www.w3.org/2000/svg" id="Layer_1" data-name="Layer 1" viewBox="0 0 24 24">
  <path d="m20.306,18.329s1.694,2.171,1.694,3.171c0,.64-.244,1.28-.732,1.768-.488.488-1.128.732-1.768.732-.64,0-1.28-.244-1.768-.732s-.732-1.131-.732-1.772c0-.996,1.694-3.168,1.694-3.168.448-.438,1.164-.438,1.612,0Zm3.694-3.829c0,1.379-1.122,2.5-2.5,2.5h-4c-1.378,0-2.5-1.121-2.5-2.5,0-.275-.224-.5-.5-.5H1.5c-.829,0-1.5-.672-1.5-1.5s.671-1.5,1.5-1.5h6.5v-3H1.5c-.829,0-1.5-.672-1.5-1.5s.671-1.5,1.5-1.5h6.5v-2h-2.5c-.829,0-1.5-.672-1.5-1.5s.671-1.5,1.5-1.5h8c.829,0,1.5.672,1.5,1.5s-.671,1.5-1.5,1.5h-2.5v2h3.5c5.238,0,9.5,4.262,9.5,9.5Zm-3.019-.5c-.256-3.352-3.065-6-6.481-6h-3.5v3h3.5c1.76,0,3.221,1.306,3.464,3h3.017Z"/>
</svg>
