<?xml version="1.0" encoding="UTF-8"?>
<svg xmlns="http://www.w3.org/2000/svg" id="Layer_1" data-name="Layer 1" viewBox="0 0 24 24" width="512" height="512"><path d="m23.198,11.215c-.348-.412-.782-.73-1.265-.937.044-.256.066-.517.066-.778,0-1.587-.793-3.016-2.082-3.857-.387-1.999-2.101-3.53-4.186-3.637-.817-1.233-2.204-2.006-3.732-2.006s-2.915.772-3.732,2.006c-2.229.114-4.035,1.857-4.247,4.06-1.24.849-2.021,2.271-2.021,3.81,0,.142.006.283.019.424-.464.208-.881.518-1.217.916-.646.765-.921,1.767-.754,2.748.732,4.326,3.533,8.024,7.492,9.894l.305.144h8.311l.305-.144c3.959-1.869,6.76-5.567,7.492-9.894.167-.981-.108-1.983-.754-2.748Zm-17.133-2.854l1.145-.438s-.21-1.349-.21-1.422c0-.827.673-1.5,1.5-1.5.098,0,1.663.341,1.663.341l.423-1.299c.202-.623.771-1.042,1.414-1.042s1.212.419,1.414,1.042l.423,1.299s1.565-.341,1.663-.341c.804,0,1.462.636,1.498,1.431l-.039,1.178.995.382c.635.244,1.046.837,1.046,1.51,0,.173-.026.34-.078.5h-3.008c.055-.156.086-.325.086-.5,0-.828-.672-1.5-1.5-1.5s-1.5.672-1.5,1.5c0,.175.03.344.086.5H5.005c-.003-.041-.005-.083-.005-.125,0-.681.418-1.275,1.065-1.515Zm14.93,5.103c-.551,3.251-2.605,6.046-5.524,7.537h-6.941c-2.919-1.491-4.974-4.286-5.524-7.537-.023-.143.035-.248.089-.312.048-.057.153-.151.324-.151h17.164c.171,0,.276.095.324.151.054.063.112.169.089.312Zm-11.995-5.963c0-.828.672-1.5,1.5-1.5s1.5.672,1.5,1.5-.672,1.5-1.5,1.5-1.5-.672-1.5-1.5Z"/></svg>
