<?xml version="1.0" encoding="UTF-8"?>
<svg xmlns="http://www.w3.org/2000/svg" id="Layer_1" data-name="Layer 1" viewBox="0 0 24 24">
  <path d="m8,13h5v3h-5v3c-1.654,0-3-1.346-3-3s1.346-3,3-3Zm1.5-8c1.381,0,2.5-1.119,2.5-2.5s-1.119-2.5-2.5-2.5-2.5,1.119-2.5,2.5,1.119,2.5,2.5,2.5Zm12.297,5.209c1.39,1.396,2.203,3.295,2.203,5.291v1c0,4.136-3.364,7.5-7.5,7.5H7.5C3.364,24,0,20.636,0,16.5v-1C0,11.364,3.364,8,7.5,8h4.513c.068-2.767,2.329-5,5.112-5,2.826,0,5.125,2.299,5.125,5.125,0,.743-.167,1.446-.453,2.084Zm-6.797-2.084c0,1.172.953,2.125,2.125,2.125s2.125-.953,2.125-2.125-.953-2.125-2.125-2.125-2.125.953-2.125,2.125Zm6,7.375c0-1.131-.434-2.209-1.185-3.032-.784.488-1.701.782-2.69.782-1.761,0-3.316-.893-4.239-2.25h-5.386c-2.481,0-4.5,2.019-4.5,4.5v1c0,2.481,2.019,4.5,4.5,4.5h9c2.481,0,4.5-2.019,4.5-4.5v-1Zm1.5-12.5c.828,0,1.5-.672,1.5-1.5s-.672-1.5-1.5-1.5-1.5.672-1.5,1.5.672,1.5,1.5,1.5Z"/>
</svg>
